<svg width="517" height="397" viewBox="0 0 517 397" fill="none" xmlns="http://www.w3.org/2000/svg">
<path d="M423.175 182.372L423.679 182.654L424.175 182.359L500.389 137.023L500.886 136.727L500.878 136.15L499.723 47.4779L499.715 46.9006L499.212 46.6184L421.841 3.28288L421.338 3.00076L420.842 3.29591L344.627 48.6326L344.131 48.9278L344.138 49.5051L345.293 138.177L345.301 138.755L345.805 139.037L423.175 182.372Z" stroke="white" stroke-opacity="0.18" stroke-width="2"/>
<path d="M423.465 273.531L423.969 273.813L424.465 273.518L500.68 228.181L501.176 227.886L501.169 227.309L500.013 138.637L500.006 138.059L499.502 137.777L422.132 94.4416L421.628 94.1594L421.132 94.4546L344.917 139.791L344.421 140.086L344.429 140.664L345.584 229.336L345.592 229.913L346.095 230.195L423.465 273.531Z" stroke="white" stroke-opacity="0.18" stroke-width="2"/>
<path d="M267.635 273.972L268.138 274.254L268.635 273.959L344.849 228.622L345.346 228.327L345.338 227.75L344.183 139.077L344.175 138.5L343.671 138.218L266.301 94.8825L265.798 94.6004L265.301 94.8955L189.087 140.232L188.591 140.527L188.598 141.105L189.753 229.777L189.761 230.354L190.265 230.636L267.635 273.972Z" stroke="white" stroke-opacity="0.18" stroke-width="2"/>
<path d="M347.796 318.446L348.3 318.728L348.796 318.433L425.011 273.096L425.507 272.801L425.499 272.224L424.344 183.551L424.337 182.974L423.833 182.692L346.463 139.356L345.959 139.074L345.463 139.369L269.248 184.706L268.752 185.001L268.759 185.579L269.915 274.251L269.922 274.828L270.426 275.11L347.796 318.446Z" stroke="white" stroke-opacity="0.18" stroke-width="2"/>
<path d="M191.998 319.563L192.501 319.846L192.997 319.55L269.212 274.218L269.708 273.922L269.701 273.345L268.546 184.68L268.538 184.103L268.034 183.821L190.664 140.489L190.161 140.207L189.665 140.502L113.45 185.835L112.953 186.13L112.961 186.707L114.116 275.372L114.124 275.95L114.628 276.232L191.998 319.563Z" stroke="white" stroke-opacity="0.18" stroke-width="2"/>
<path d="M113.853 364.457L114.357 364.74L114.853 364.444L191.068 319.108L191.564 318.813L191.557 318.235L190.401 229.563L190.394 228.986L189.89 228.704L112.52 185.368L112.016 185.086L111.52 185.381L35.3055 230.718L34.8093 231.013L34.8168 231.59L35.9722 320.262L35.9797 320.84L36.4834 321.122L113.853 364.457Z" stroke="white" stroke-opacity="0.18" stroke-width="2"/>
<path d="M115.009 454.924L115.512 455.206L116.009 454.911L192.223 409.575L192.72 409.279L192.712 408.702L191.557 320.03L191.549 319.453L191.046 319.17L113.675 275.835L113.172 275.553L112.676 275.848L36.4608 321.185L35.9646 321.48L35.9721 322.057L37.1274 410.729L37.135 411.307L37.6387 411.589L115.009 454.924Z" stroke="white" stroke-opacity="0.18" stroke-width="2"/>
<path d="M35.8735 230.234L36.3772 230.516L36.8734 230.221L113.088 184.884L113.584 184.589L113.577 184.012L112.421 95.3395L112.414 94.7622L111.91 94.48L34.5402 51.1445L34.0365 50.8623L33.5403 51.1575L-42.6745 96.4942L-43.1707 96.7893L-43.1632 97.3666L-42.0078 186.039L-42.0003 186.616L-41.4966 186.898L35.8735 230.234Z" stroke="white" stroke-opacity="0.18" stroke-width="2"/>
<path d="M-40.7891 455.16L-40.2854 455.442L-39.7892 455.147L36.4256 409.81L36.9218 409.515L36.9142 408.938L35.7589 320.265L35.7514 319.688L35.2477 319.406L-42.1224 276.07L-42.6261 275.788L-43.1223 276.084L-119.337 321.42L-119.833 321.715L-119.826 322.293L-118.67 410.965L-118.663 411.542L-118.159 411.824L-40.7891 455.16Z" stroke="white" stroke-opacity="0.18" stroke-width="2"/>
<path d="M37.0288 320.701L37.5325 320.983L38.0287 320.688L114.243 275.351L114.74 275.056L114.732 274.478L113.577 185.806L113.569 185.229L113.066 184.947L35.6954 141.611L35.1917 141.329L34.6955 141.624L-41.5192 186.961L-42.0154 187.256L-42.0079 187.833L-40.8525 276.506L-40.845 277.083L-40.3413 277.365L37.0288 320.701Z" stroke="white" stroke-opacity="0.18" stroke-width="2"/>
<path d="M194.309 497.82L194.813 498.102L195.309 497.807L271.523 452.47L272.02 452.175L272.012 451.598L270.857 362.926L270.849 362.348L270.346 362.066L192.975 318.731L192.472 318.449L191.976 318.744L115.761 364.08L115.265 364.376L115.272 364.953L116.427 453.625L116.435 454.202L116.939 454.484L194.309 497.82Z" stroke="white" stroke-opacity="0.18" stroke-width="2"/>
</svg>
