<svg width="608" height="495" viewBox="0 0 608 495" fill="none" xmlns="http://www.w3.org/2000/svg">
<path d="M89.3399 314.25L88.8399 313.961L88.3399 314.25L11.541 358.59L11.041 358.878V359.456L11.041 448.135V448.713L11.541 449.001L88.3399 493.341L88.8399 493.63L89.3399 493.341L166.139 449.001L166.639 448.713V448.135V359.456V358.878L166.139 358.59L89.3399 314.25Z" stroke="#989898" stroke-opacity="0.13" stroke-width="2"/>
<path d="M90.2371 223.095L89.7371 222.806L89.2371 223.095L12.4382 267.435L11.9382 267.724V268.301L11.9382 356.981V357.558L12.4382 357.847L89.2371 402.187L89.7371 402.475L90.2371 402.187L167.036 357.847L167.536 357.558V356.981V268.301V267.724L167.036 267.435L90.2371 223.095Z" stroke="#989898" stroke-opacity="0.13" stroke-width="2"/>
<path d="M246.06 224.684L245.56 224.396L245.06 224.684L168.261 269.024L167.761 269.313V269.89V358.57V359.147L168.261 359.436L245.06 403.776L245.56 404.065L246.06 403.776L322.859 359.436L323.359 359.147V358.57V269.89V269.313L322.859 269.024L246.06 224.684Z" stroke="#989898" stroke-opacity="0.13" stroke-width="2"/>
<path d="M166.485 179.17L165.985 178.881L165.485 179.17L88.686 223.51L88.186 223.798V224.376V313.056V313.633L88.686 313.922L165.485 358.262L165.985 358.55L166.485 358.262L243.284 313.922L243.784 313.633V313.056V224.376V223.798L243.284 223.51L166.485 179.17Z" stroke="#989898" stroke-opacity="0.13" stroke-width="2"/>
<path d="M322.285 180.082L321.785 179.793L321.285 180.082L244.486 224.418L243.986 224.707V225.284V313.956V314.534L244.486 314.822L321.285 359.159L321.785 359.447L322.285 359.159L399.084 314.822L399.584 314.534V313.956V225.284V224.707L399.084 224.418L322.285 180.082Z" stroke="#989898" stroke-opacity="0.13" stroke-width="2"/>
<path d="M401.007 136.21L400.507 135.921L400.007 136.21L323.208 180.55L322.708 180.838V181.416V270.095V270.673L323.208 270.961L400.007 315.301L400.507 315.59L401.007 315.301L477.806 270.961L478.306 270.673V270.095V181.416V180.838L477.806 180.55L401.007 136.21Z" stroke="#989898" stroke-opacity="0.13" stroke-width="2"/>
<path d="M401.031 45.7357L400.531 45.447L400.031 45.7357L323.232 90.0756L322.732 90.3643V90.9416V179.621V180.199L323.232 180.487L400.031 224.827L400.531 225.116L401.031 224.827L477.83 180.487L478.33 180.199V179.621V90.9416V90.3643L477.83 90.0756L401.031 45.7357Z" stroke="#989898" stroke-opacity="0.13" stroke-width="2"/>
<path d="M477.232 271.438L476.732 271.149L476.232 271.438L399.433 315.778L398.933 316.067V316.644V405.324V405.901L399.433 406.19L476.232 450.53L476.732 450.818L477.232 450.53L554.031 406.19L554.531 405.901V405.324V316.644V316.067L554.031 315.778L477.232 271.438Z" stroke="#989898" stroke-opacity="0.13" stroke-width="2"/>
<path d="M633.066 269.644L632.566 269.355L632.066 269.644L555.268 313.984L554.768 314.272V314.85V403.529V404.107L555.268 404.395L632.066 448.735L632.566 449.024L633.066 448.735L709.865 404.395L710.365 404.107V403.529V314.85V314.272L709.865 313.984L633.066 269.644Z" stroke="#989898" stroke-opacity="0.13" stroke-width="2"/>
<path d="M556.818 47.53L556.318 47.2413L555.818 47.53L479.02 91.8699L478.52 92.1586V92.7359V181.416V181.993L479.02 182.282L555.818 226.622L556.318 226.91L556.818 226.622L633.617 182.282L634.117 181.993V181.416V92.7359V92.1586L633.617 91.8699L556.818 47.53Z" stroke="#989898" stroke-opacity="0.13" stroke-width="2"/>
<path d="M633.066 92.2842L632.566 91.9955L632.066 92.2842L555.268 136.624L554.768 136.913V137.49V226.17V226.747L555.268 227.036L632.066 271.376L632.566 271.664L633.066 271.376L709.865 227.036L710.365 226.747V226.17V137.49V136.913L709.865 136.624L633.066 92.2842Z" stroke="#989898" stroke-opacity="0.13" stroke-width="2"/>
<path d="M477.255 180.964L476.755 180.675L476.255 180.964L399.457 225.304L398.957 225.593V226.17V314.85V315.427L399.457 315.716L476.255 360.056L476.755 360.344L477.255 360.056L554.054 315.716L554.554 315.427V314.85V226.17V225.593L554.054 225.304L477.255 180.964Z" stroke="#989898" stroke-opacity="0.13" stroke-width="2"/>
<path d="M322.296 1.81037L321.796 1.52169L321.296 1.81037L244.497 46.1502L243.997 46.4389V47.0163V135.696V136.273L244.497 136.562L321.296 180.902L321.796 181.191L322.296 180.902L399.095 136.562L399.595 136.273V135.696V47.0163V46.4389L399.095 46.1502L322.296 1.81037Z" stroke="#989898" stroke-opacity="0.13" stroke-width="2"/>
</svg>
