<svg width="531" height="496" viewBox="0 0 531 496" fill="none" xmlns="http://www.w3.org/2000/svg">
<path d="M89.1798 314.573L88.6798 314.285L88.1798 314.573L11.3808 358.913L10.8808 359.202V359.779L10.8808 448.459V449.036L11.3808 449.325L88.1798 493.665L88.6798 493.954L89.1798 493.665L165.979 449.325L166.479 449.036V448.459V359.779V359.202L165.979 358.913L89.1798 314.573Z" stroke="#004AC1" stroke-opacity="0.55" stroke-width="2"/>
<path d="M90.077 223.419L89.577 223.13L89.077 223.419L12.2781 267.759L11.7781 268.047V268.625L11.7781 357.304V357.882L12.2781 358.17L89.077 402.51L89.577 402.799L90.077 402.51L166.876 358.17L167.376 357.882V357.304V268.625V268.047L166.876 267.759L90.077 223.419Z" stroke="#004AC1" stroke-opacity="0.55" stroke-width="2"/>
<path d="M245.9 225.008L245.4 224.719L244.9 225.008L168.101 269.348L167.601 269.637V270.214V358.894V359.471L168.101 359.76L244.9 404.1L245.4 404.388L245.9 404.1L322.699 359.76L323.199 359.471V358.894V270.214V269.637L322.699 269.348L245.9 225.008Z" stroke="#004AC1" stroke-opacity="0.55" stroke-width="2"/>
<path d="M166.325 179.494L165.825 179.205L165.325 179.494L88.5259 223.833L88.0259 224.122V224.7V313.379V313.957L88.5259 314.245L165.325 358.585L165.825 358.874L166.325 358.585L243.124 314.245L243.624 313.957V313.379V224.7V224.122L243.124 223.833L166.325 179.494Z" stroke="#004AC1" stroke-opacity="0.55" stroke-width="2"/>
<path d="M322.125 180.406L321.625 180.117L321.125 180.406L244.326 224.742L243.826 225.03V225.608V314.28V314.857L244.326 315.146L321.125 359.482L321.625 359.771L322.125 359.482L398.924 315.146L399.424 314.857V314.28V225.608V225.03L398.924 224.742L322.125 180.406Z" stroke="#004AC1" stroke-opacity="0.55" stroke-width="2"/>
<path d="M400.847 136.533L400.347 136.245L399.847 136.533L323.048 180.873L322.548 181.162V181.739V270.419V270.996L323.048 271.285L399.847 315.625L400.347 315.914L400.847 315.625L477.646 271.285L478.146 270.996V270.419V181.739V181.162L477.646 180.873L400.847 136.533Z" stroke="#004AC1" stroke-opacity="0.55" stroke-width="2"/>
<path d="M400.87 46.0593L400.37 45.7706L399.87 46.0593L323.072 90.3992L322.572 90.6878V91.2652V179.945V180.522L323.072 180.811L399.87 225.151L400.37 225.44L400.87 225.151L477.669 180.811L478.169 180.522V179.945V91.2652V90.6878L477.669 90.3992L400.87 46.0593Z" stroke="#004AC1" stroke-opacity="0.55" stroke-width="2"/>
<path d="M477.072 271.762L476.572 271.473L476.072 271.762L399.273 316.102L398.773 316.39V316.968V405.647V406.225L399.273 406.513L476.072 450.853L476.572 451.142L477.072 450.853L553.871 406.513L554.371 406.225V405.647V316.968V316.39L553.871 316.102L477.072 271.762Z" stroke="#004AC1" stroke-opacity="0.55" stroke-width="2"/>
<path d="M556.658 47.8536L556.158 47.5649L555.658 47.8536L478.859 92.1935L478.359 92.4821V93.0595V181.739V182.317L478.859 182.605L555.658 226.945L556.158 227.234L556.658 226.945L633.457 182.605L633.957 182.317V181.739V93.0595V92.4821L633.457 92.1935L556.658 47.8536Z" stroke="#004AC1" stroke-opacity="0.55" stroke-width="2"/>
<path d="M477.095 181.288L476.595 180.999L476.095 181.288L399.296 225.627L398.796 225.916V226.493V315.173V315.751L399.296 316.039L476.095 360.379L476.595 360.668L477.095 360.379L553.894 316.039L554.394 315.751V315.173V226.493V225.916L553.894 225.627L477.095 181.288Z" stroke="#004AC1" stroke-opacity="0.55" stroke-width="2"/>
<path d="M322.136 2.13397L321.636 1.8453L321.136 2.13397L244.337 46.4739L243.837 46.7625V47.3399V136.02V136.597L244.337 136.886L321.136 181.226L321.636 181.514L322.136 181.226L398.935 136.886L399.435 136.597V136.02V47.3399V46.7625L398.935 46.4739L322.136 2.13397Z" stroke="#004AC1" stroke-opacity="0.55" stroke-width="2"/>
</svg>
