<svg width="248" height="653" viewBox="0 0 248 653" fill="none" xmlns="http://www.w3.org/2000/svg">
<path d="M24.3802 90.077L24.6689 89.577L24.3802 89.077L-19.9597 12.2781L-20.2484 11.7781L-20.8257 11.7781L-109.505 11.778L-110.083 11.778L-110.372 12.278L-154.711 89.077L-155 89.577L-154.711 90.077L-110.372 166.876L-110.083 167.376L-109.506 167.376L-20.8257 167.376L-20.2484 167.376L-19.9597 166.876L24.3802 90.077Z" stroke="#004AC1" stroke-opacity="0.1" stroke-width="2"/>
<path d="M22.7908 245.9L23.0795 245.4L22.7908 244.9L-21.5491 168.101L-21.8377 167.601L-22.4151 167.601L-111.095 167.601L-111.672 167.601L-111.961 168.101L-156.301 244.9L-156.589 245.4L-156.301 245.9L-111.961 322.699L-111.672 323.199L-111.095 323.199L-22.4151 323.199L-21.8377 323.199L-21.5491 322.699L22.7908 245.9Z" stroke="#004AC1" stroke-opacity="0.1" stroke-width="2"/>
<path d="M68.3052 166.325L68.5939 165.825L68.3052 165.325L23.9654 88.5259L23.6767 88.0259L23.0993 88.0259L-65.5804 88.0259L-66.1578 88.0259L-66.4465 88.5259L-110.786 165.325L-111.075 165.825L-110.786 166.325L-66.4465 243.124L-66.1578 243.624L-65.5805 243.624L23.0993 243.624L23.6767 243.624L23.9653 243.124L68.3052 166.325Z" stroke="#004AC1" stroke-opacity="0.1" stroke-width="2"/>
<path d="M67.3931 322.125L67.6818 321.625L67.3931 321.125L23.057 244.326L22.7683 243.826L22.191 243.826L-66.4813 243.826L-67.0587 243.826L-67.3474 244.326L-111.684 321.125L-111.972 321.625L-111.684 322.125L-67.3474 398.924L-67.0587 399.424L-66.4813 399.424L22.1909 399.424L22.7683 399.424L23.057 398.924L67.3931 322.125Z" stroke="#004AC1" stroke-opacity="0.1" stroke-width="2"/>
<path d="M111.265 400.847L111.554 400.347L111.265 399.847L66.9256 323.048L66.6369 322.548L66.0595 322.548L-22.6202 322.548L-23.1976 322.548L-23.4863 323.048L-67.8261 399.847L-68.1148 400.347L-67.8261 400.847L-23.4863 477.646L-23.1976 478.146L-22.6202 478.146L66.0595 478.146L66.6369 478.146L66.9255 477.646L111.265 400.847Z" stroke="#004AC1" stroke-opacity="0.1" stroke-width="2"/>
<path d="M201.74 400.87L202.028 400.37L201.74 399.87L157.4 323.072L157.111 322.572L156.534 322.572L67.8539 322.572L67.2765 322.572L66.9879 323.072L22.648 399.87L22.3593 400.37L22.648 400.87L66.9878 477.669L67.2765 478.169L67.8539 478.169L156.534 478.169L157.111 478.169L157.4 477.669L201.74 400.87Z" stroke="#004AC1" stroke-opacity="0.1" stroke-width="2"/>
<path d="M199.945 556.658L200.234 556.158L199.945 555.658L155.605 478.859L155.317 478.359L154.739 478.359L66.0594 478.359L65.4821 478.359L65.1934 478.859L20.8535 555.658L20.5649 556.158L20.8535 556.658L65.1934 633.457L65.4821 633.957L66.0594 633.957L154.739 633.957L155.317 633.957L155.605 633.457L199.945 556.658Z" stroke="#004AC1" stroke-opacity="0.1" stroke-width="2"/>
<path d="M155.191 632.906L155.48 632.406L155.191 631.906L110.851 555.108L110.562 554.608L109.985 554.608L21.3053 554.608L20.728 554.608L20.4393 555.108L-23.9006 631.906L-24.1893 632.406L-23.9006 632.906L20.4393 709.705L20.7279 710.205L21.3053 710.205L109.985 710.205L110.562 710.205L110.851 709.705L155.191 632.906Z" stroke="#004AC1" stroke-opacity="0.1" stroke-width="2"/>
<path d="M66.5113 477.095L66.8 476.595L66.5113 476.095L22.1714 399.296L21.8827 398.796L21.3054 398.796L-67.3744 398.796L-67.9517 398.796L-68.2404 399.296L-112.58 476.095L-112.869 476.595L-112.58 477.095L-68.2404 553.894L-67.9517 554.394L-67.3744 554.394L21.3054 554.394L21.8827 554.394L22.1714 553.894L66.5113 477.095Z" stroke="#004AC1" stroke-opacity="0.1" stroke-width="2"/>
<path d="M245.665 322.136L245.954 321.636L245.665 321.136L201.325 244.337L201.036 243.837L200.459 243.837L111.779 243.837L111.202 243.837L110.913 244.337L66.5733 321.136L66.2846 321.636L66.5733 322.136L110.913 398.935L111.202 399.435L111.779 399.435L200.459 399.435L201.036 399.435L201.325 398.935L245.665 322.136Z" stroke="#004AC1" stroke-opacity="0.1" stroke-width="2"/>
</svg>
