<svg width="28" height="27" viewBox="0 0 28 27" fill="none" xmlns="http://www.w3.org/2000/svg">
<g clip-path="url(#clip0)">
<path d="M13.5213 22.2407H26.2397C26.6769 22.2407 27.0313 22.5949 27.0313 23.0317V26.209C27.0313 26.6458 26.6769 27 26.2397 27H13.5213C13.0842 27 12.7297 26.6458 12.7297 26.209V23.0317C12.7297 22.5949 13.0841 22.2407 13.5213 22.2407Z" fill="white"/>
<path d="M0.708817 20.4515L9.14703 12.0195L12.5148 15.3848L4.07666 23.8168C3.61241 24.2807 3.00256 24.5127 2.39276 24.5127C1.78297 24.5127 1.17312 24.2807 0.708869 23.8168C-0.219679 22.889 -0.219679 21.3793 0.708817 20.4515V20.4515Z" fill="white"/>
<path d="M9.13599 9.77344L14.7513 4.16232L20.3759 9.78276L14.7606 15.3939L9.13599 9.77344Z" fill="white"/>
<path d="M23.1827 10.3369L24.3115 11.4649C24.6207 11.7738 24.6207 12.2746 24.3115 12.5835L17.5665 19.3235C17.412 19.478 17.2094 19.5552 17.0068 19.5552C16.8043 19.5552 16.6016 19.478 16.4471 19.3235L15.3183 18.1955C15.0091 17.8866 15.0091 17.3858 15.3183 17.0769L22.0632 10.337C22.3723 10.028 22.8735 10.028 23.1827 10.3369Z" fill="white"/>
<path d="M7.4538 9.21829C7.14465 9.52721 6.64346 9.52721 6.33432 9.21829L5.20549 8.0903C4.89635 7.78139 4.89635 7.28057 5.20549 6.97165L11.9504 0.231669C12.2595 -0.0771965 12.7607 -0.0772493 13.0699 0.231669L14.1987 1.35966C14.5079 1.66857 14.5079 2.16939 14.1987 2.47831L7.4538 9.21829Z" fill="white"/>
</g>
<defs>
<clipPath id="clip0">
<rect width="27.02" height="27" fill="white" transform="translate(0.0119629)"/>
</clipPath>
</defs>
</svg>
