<svg width="25" height="24" viewBox="0 0 25 24" fill="none" xmlns="http://www.w3.org/2000/svg">
<path d="M19.0355 3H14.8524C14.4321 1.84 13.3313 1 12.0303 1C10.7294 1 9.62857 1.84 9.20826 3H5.02516C3.92435 3 3.02368 3.9 3.02368 5V19C3.02368 20.1 3.92435 21 5.02516 21H19.0355C20.1363 21 21.037 20.1 21.037 19V5C21.037 3.9 20.1363 3 19.0355 3ZM12.0303 3C12.5808 3 13.0311 3.45 13.0311 4C13.0311 4.55 12.5808 5 12.0303 5C11.4799 5 11.0296 4.55 11.0296 4C11.0296 3.45 11.4799 3 12.0303 3ZM14.0318 17H7.02664V15H14.0318V17ZM17.0341 13H7.02664V11H17.0341V13ZM17.0341 9H7.02664V7H17.0341V9Z" fill="#EDB20B"/>
</svg>
